<svg xmlns="http://www.w3.org/2000/svg" viewBox="2 8 52 48" fill="none">
  <defs>
    <!-- 上横梁：紫色 -->
    <linearGradient id="gradTop" x1="0" y1="0" x2="1" y2="1">
      <stop offset="0" stop-color="#A76BEB"/>
      <stop offset="1" stop-color="#C89AF0"/>
    </linearGradient>
    <!-- 左竖梁：紫青渐变 -->
    <linearGradient id="gradMid" x1="0" y1="0" x2="0" y2="1">
      <stop offset="0" stop-color="#A76BEB"/>
      <stop offset="0.5" stop-color="#6A9CE8"/>
      <stop offset="1" stop-color="#2ADEFF"/>
    </linearGradient>
    <!-- 下横梁：青色 -->
    <linearGradient id="gradBottom" x1="0" y1="0" x2="1" y2="1">
      <stop offset="0" stop-color="#5BE8FF"/>
      <stop offset="1" stop-color="#2ADEFF"/>
    </linearGradient>
    <!-- 发光滤镜：向外延申的光晕 -->
    <filter id="glow" x="-50%" y="-50%" width="200%" height="200%">
      <feGaussianBlur stdDeviation="1.8" result="blur"/>
      <feMerge>
        <feMergeNode in="blur"/>
        <feMergeNode in="SourceGraphic"/>
      </feMerge>
    </filter>
  </defs>

  <!-- 三段式 C 形支架：隐喻 Clean Architecture 分层 -->
  <g filter="url(#glow)">
    <!-- 上横梁 -->
    <path d="M14 14 L40 14 A6 6 0 0 1 46 20 L46 24 A6 6 0 0 1 40 30 L14 30 Z" fill="url(#gradTop)"/>
    <!-- 左竖梁（连接，构成 C 主体） -->
    <path d="M14 14 L26 14 L26 50 L14 50 A6 6 0 0 1 8 44 L8 20 A6 6 0 0 1 14 14 Z" fill="url(#gradMid)"/>
    <!-- 下横梁 -->
    <path d="M14 34 L40 34 A6 6 0 0 1 46 40 L46 44 A6 6 0 0 1 40 50 L14 50 Z" fill="url(#gradBottom)"/>
  </g>
</svg>
